<svg id="Capa_1" enable-background="new 0 0 512 512" height="512" viewBox="0 0 512 512" width="512" xmlns="http://www.w3.org/2000/svg"><g><path d="m419.068 226.159c4.143 0 7.5-3.357 7.5-7.5v-19.023l21.104 23.979c2.746 3.119 7.487 3.401 10.585.675 3.109-2.736 3.411-7.476.675-10.585l-16.531-18.783c10.587-2.754 18.402-12.076 18.402-23.125 0-13.209-11.165-23.955-24.888-23.955h-16.826c-.003 0-.007 0-.01 0s-.007 0-.01 0c-4.143 0-7.5 3.357-7.5 7.5v63.318c-.001 4.142 3.356 7.499 7.499 7.499zm16.847-63.318c5.359 0 9.888 4.101 9.888 8.955s-4.528 8.956-9.888 8.956c-2.153 0-5.867.016-9.252.032-.033-7.595-.033-10.135-.051-17.943zm-16.847-54.522c4.143 0 7.5-3.357 7.5-7.5v-20.044c3.654-.019 7.783-.037 10.131-.037 14.182 0 25.719-11.38 25.719-25.368s-11.538-25.37-25.719-25.37h-17.631c-3.697-.074-7.643 3.256-7.5 7.5v63.319c0 4.143 3.357 7.5 7.5 7.5zm17.631-63.319c5.811 0 10.719 4.748 10.719 10.369 0 5.62-4.908 10.368-10.719 10.368-2.331 0-6.41.018-10.05.037-.019-3.76-.048-16.841-.059-20.774zm33.648 366.108c-.04-4.118-3.39-7.428-7.498-7.428h-.074c-4.143.04-7.468 3.431-7.428 7.572l.387 39.942-30.494-44.158c-1.865-2.701-5.267-3.873-8.404-2.898-3.133.977-5.268 3.878-5.268 7.16v63.202c0 4.143 3.357 7.5 7.5 7.5s7.5-3.357 7.5-7.5v-39.143l29.063 42.085c2.22 3.209 5.919 4.575 9.418 3.481 3.578-1.117 5.89-4.476 5.89-8.63zm-51.154-61.884h.028c.526-.002 12.934-.05 17.89-.137 18.354-.321 31.674-16.339 31.674-38.087 0-22.862-12.985-38.224-32.313-38.224h-17.403c-4.082-.021-7.526 3.434-7.5 7.515v.048 60.385c.016 4.279 3.301 8.533 7.624 8.5zm17.278-61.448c12.766 0 17.313 11.997 17.313 23.224 0 15.745-8.506 22.941-16.936 23.089-2.336.041-6.487.073-10.182.097-.023-7.264-.073-38.853-.086-46.409h9.891zm-45.021-218.616c0-4.143-3.357-7.5-7.5-7.5h-37.24c-5.357-9.955-12.2-19.18-20.419-27.395-22.107-22.096-51.488-34.265-82.731-34.265-64.514 0-117 52.486-117 117v16.747c0 4.143 3.357 7.5 7.5 7.5s7.5-3.357 7.5-7.5v-16.747c0-56.243 45.757-102 102-102 27.237 0 52.854 10.609 72.128 29.875 19.212 19.204 29.919 44.576 29.872 72.125v152.5h-35v-152.5c0-36.944-30.056-67-67-67s-67 30.056-67 67v152.5h-35v-100.753c0-4.143-3.357-7.5-7.5-7.5s-7.5 3.357-7.5 7.5v100.753h-11.999c-7.942-.059-14.276 7.112-13.5 15h-42.5c-9.649 0-17.5 7.851-17.5 17.5v18c0 9.649 7.851 17.5 17.5 17.5h42.5c-.76 7.913 5.498 15.027 13.5 15h11.999v42.5c0 64.514 52.486 117 117 117 44.507 0 83.287-24.983 103.06-61.66h37.329c4.143 0 7.5-3.357 7.5-7.5s-3.357-7.5-7.5-7.5h-30.559c4.635-12.581 7.169-26.17 7.169-40.34v-42.5h12.001c7.444 0 13.5-6.056 13.5-13.5v-56c0-7.444-6.056-13.5-13.5-13.5h-12v-75h23.39c4.143 0 7.5-3.357 7.5-7.5s-3.357-7.5-7.5-7.5h-23.39v-62.5c0-13.986-2.442-27.592-7.112-40.34h30.501c4.143 0 7.501-3.357 7.501-7.5zm-290.389 253.34h-42.5c-1.379 0-2.5-1.121-2.5-2.5v-18c0-1.379 1.121-2.5 2.5-2.5h42.5zm90.499-205.5c0-28.673 23.327-52 52-52s52 23.327 52 52v152.5h-104zm154 278c0 56.243-45.757 102-102 102s-102-45.757-102-102v-42.5h35v42.5c0 36.944 30.056 67 67 67s67-30.056 67-67v-42.5h35zm25.501-110.5v53h-101.721c-4.143 0-7.5 3.357-7.5 7.5s3.357 7.5 7.5 7.5h26.22v42.5c0 28.673-23.327 52-52 52s-52-23.327-52-52v-42.5h42.78c4.143 0 7.5-3.357 7.5-7.5s-3.357-7.5-7.5-7.5h-118.279v-53z"/></g></svg>