<svg id="Layer_1" enable-background="new 0 0 512.01 512.01" height="512" viewBox="0 0 512.01 512.01" width="512" xmlns="http://www.w3.org/2000/svg"><path d="m432 120.005c8.837 0 16-7.164 16-16v-16h24c22.06 0 40-17.94 40-40s-17.94-40-40-40h-40c-8.84 0-16 7.16-16 16v80c0 8.836 7.163 16 16 16zm16-80h24c4.41 0 8 3.59 8 8s-3.59 8-8 8h-24z"/><path d="m472 136.005h-40c-8.84 0-16 7.16-16 16v80c0 8.836 7.163 16 16 16s16-7.164 16-16v-16h24c4.411 0 8 3.589 8 8v8c0 8.836 7.163 16 16 16s16-7.164 16-16v-8c0-15.037-8.139-23.762-8.02-24 19.613-26.034 1.128-64-31.98-64zm0 48h-24v-16h24c4.41 0 8 3.59 8 8s-3.59 8-8 8z"/><path d="m472 264.005h-40c-8.84 0-16 7.16-16 16v80c0 8.84 7.16 16 16 16h40c22.06 0 40-17.94 40-40v-32c0-22.06-17.94-40-40-40zm8 72c0 4.41-3.59 8-8 8h-24v-48h24c4.41 0 8 3.59 8 8z"/><path d="m496 392.005c-8.837 0-16 7.164-16 16v34.388l-35.506-44.383c-9.423-11.779-28.494-5.092-28.494 9.995v80c0 8.836 7.163 16 16 16s16-7.164 16-16v-34.388l35.506 44.383c9.425 11.779 28.494 5.091 28.494-9.995v-80c0-8.836-7.163-16-16-16z"/><path d="m120 88.005c0-50.033 60.608-74.558 95.6-39.6 10.57 10.58 16.4 24.64 16.4 39.6v120h32v-120c0-48.632-39.37-88-88-88-48.52 0-88 39.48-88 88v120h32z"/><path d="m176 480.005c-30.88 0-56-25.12-56-56h-32c0 48.52 39.48 88 88 88s88-39.48 88-88h-32c0 30.88-25.12 56-56 56z"/><path d="m48.83 272.005h-9.83c-21.5 0-39 17.5-39 39v10c0 21.5 17.5 39 39 39h9.83c-.55-3.62-.83-7.32-.83-11.08 0-70.493-.303-69.461.83-76.92z"/><path d="m264 240.125c0-.232-144-.141-144 0-22.33 1.57-40 20.24-40 42.96v65.84c0 22.72 17.67 41.39 40 42.96 0 .232 144 .141 144 0 22.33-1.57 40-20.24 40-42.96v-65.84c0-22.72-17.67-41.39-40-42.96z"/><path d="m360 48.005h-24c-8.837 0-16 7.164-16 16s7.163 16 16 16h24c8.837 0 16-7.164 16-16s-7.163-16-16-16z"/><path d="m360 176.005h-24c-8.837 0-16 7.164-16 16s7.163 16 16 16h24c8.837 0 16-7.164 16-16s-7.163-16-16-16z"/><path d="m360 432.005h-24c-8.837 0-16 7.164-16 16s7.163 16 16 16h24c8.837 0 16-7.164 16-16s-7.163-16-16-16z"/><path d="m144 88.005v120h64v-120c0-17.645-14.355-32-32-32s-32 14.355-32 32z"/><path d="m208 432.005v-8c-22.34 0-41.639 0-64 0v8c0 17.645 14.355 32 32 32s32-14.355 32-32z"/></svg>