<svg xmlns="http://www.w3.org/2000/svg" xmlns:xlink="http://www.w3.org/1999/xlink">
    <symbol id="transmission-icon" viewBox="0 0 24 24">
        <path d="M4 2.25a2.751 2.751 0 0 0 0 5.5 2.751 2.751 0 0 0 0-5.5zm0 1.5a1.25 1.25 0 1 1 0 2.5 1.25 1.25 0 0 1 0-2.5zM4 16.25a2.751 2.751 0 0 0 0 5.5 2.751 2.751 0 0 0 0-5.5zm0 1.5a1.25 1.25
         0 1 1 0 2.5 1.25 1.25 0 0 1 0-2.5zM12 2.25a2.751 2.751 0 0 0 0 5.5 2.751 2.751 0 0 0 0-5.5zm0 1.5a1.25 1.25 0 1 1 0 2.5 1.25 1.25 0 0 1 0-2.5zM12 16.25a2.751 2.751 0 0 0 0 5.5 2.751 2.751 0 0 0 0-5.5zm0 1.5a1.25 1.25 0 1 1 0 2.5 1.25 1.25 0 0 1 0-2.5zM20 2.25a2.751
          2.751 0 0 0 0 5.5 2.751 2.751 0 0 0 0-5.5zm0 1.5a1.25 1.25 0 1 1 0 2.5 1.25 1.25 0 0 1 0-2.5zM20 16.25a2.751 2.751 0 0 0 0 5.5 2.751 2.751 0 0 0 0-5.5zm0 1.5a1.25 1.25 0 1 1 0 2.5 1.25 1.25 0 0 1 0-2.5z" fill="#000000" data-original="#000000" class="">
        </path>
        <path d="M3.25 7v10a.75.75 0 0 0 1.5 0V7a.75.75 0 0 0-1.5 0zM11.25 7v10a.75.75 0 0 0 1.5 0V7a.75.75 0 0 0-1.5 0z" fill="#000000" data-original="#000000" class=""></path>
        <path d="M19.25 7v4a.25.25 0 0 1-.25.25H4a.75.75 0 0 0 0 1.5h15A1.75 1.75 0 0 0 20.75 11V7a.75.75 0 0 0-1.5 0z" fill="#000000" data-original="#000000" class=""></path>
    </symbol>
</svg>