<svg height="512" viewBox="0 0 32 32" width="512" xmlns="http://www.w3.org/2000/svg"><g id="Layer_2" data-name="Layer 2"><path d="m22.812 2.773a2.139 2.139 0 0 0 -2.226.154 1.382 1.382 0 0 1 -.922.305 1.529 1.529 0 0 1 -1.076-.418 3.574 3.574 0 0 0 -4.519 0 1.589 1.589 0 0 1 -2.148 0 3.568 3.568 0 0 0 -4.515 0 1.528 1.528 0 0 1 -1.074.418 1.375 1.375 0 0 1 -.917-.3 2.137 2.137 0 0 0 -2.227-.154 2.2 2.2 0 0 0 -1.188 1.958v21.072a2.191 2.191 0 0 0 2.177 2.2h17.646a2.191 2.191 0 0 0 2.177-2.198v-21.075a2.2 2.2 0 0 0 -1.188-1.962z" fill="#ecf1fd"/><g fill="#477898"><path d="m18.6 11.005h-7.4a1 1 0 0 1 0-2h7.4a1 1 0 0 1 0 2z"/><circle cx="7.603" cy="10.005" r="1.199"/><path d="m18.6 16.2h-7.4a1 1 0 0 1 0-2h7.4a1 1 0 0 1 0 2z"/><circle cx="7.603" cy="15.203" r="1.199"/><path d="m17 21.2h-5.8a1 1 0 0 1 0-2h5.8a1 1 0 0 1 0 2z"/><circle cx="7.603" cy="20.203" r="1.199"/></g><circle cx="23" cy="23" fill="#5fc77d" r="7"/><circle cx="23" cy="23" fill="#a4e786" r="5"/><path d="m22.333 25.458a1 1 0 0 1 -.707-.292l-1.333-1.334a1 1 0 0 1 1.414-1.414l.626.626 1.96-1.96a1 1 0 1 1 1.414 1.416l-2.667 2.666a1 1 0 0 1 -.707.292z" fill="#5fc77d"/></g></svg>